<svg width="116" height="42" viewBox="0 0 116 42" fill="none" xmlns="http://www.w3.org/2000/svg">
<path d="M0.525361 23.6234L0.5 5.53108H3.0107V7.18523C3.0107 7.77969 2.85854 8.52923 2.68102 9.09785H2.73174C2.90926 8.55508 3.18823 7.80554 3.594 7.392C4.76059 6.15138 6.84016 5.35015 8.48861 5.376C12.2673 5.40185 14.5244 7.52123 14.5244 11.9926C14.5244 16.464 12.2673 18.6092 8.48861 18.6092C6.84016 18.6092 4.76059 17.8597 3.594 16.6449C3.18823 16.2314 2.90926 15.4818 2.73174 14.9391H2.68102C2.85854 15.5077 3.0107 16.2572 3.0107 16.8517V23.6234H0.525361ZM3.0107 11.9926C3.0107 14.784 5.44533 16.5157 7.67707 16.5157C10.7711 16.5157 12.0391 15.0425 12.0391 11.9926C12.0391 8.91692 10.7964 7.57292 7.67707 7.54708C5.44533 7.52123 3.0107 9.20123 3.0107 11.9926ZM20.5963 18.6092C16.919 18.6092 15.9046 15.4818 15.9046 12.0702V5.47938H18.39V12.0702C18.39 14.8098 19.4297 16.0505 21.484 16.0505C22.5745 16.0505 25.0091 15.1458 25.0091 10.3126V5.47938H27.4944V18.4025H25.0091V15.9212C25.0091 15.3785 25.1105 14.7065 25.212 14.1895L25.1613 14.1637C24.6794 16.5932 23.2846 18.6092 20.5963 18.6092ZM29.8976 8.99446C29.8976 6.66831 30.9627 5.53108 33.2705 5.53108H38.368V7.90892L34.0821 7.93477C32.6619 7.93477 32.3829 8.08985 32.3829 9.87323V18.4542H29.8976V8.99446ZM39.7304 23.6234L39.705 5.53108H42.2157V7.18523C42.2157 7.77969 42.0636 8.52923 41.886 9.09785H41.9367C42.1143 8.55508 42.3933 7.80554 42.799 7.392C43.9656 6.15138 46.0452 5.35015 47.6936 5.376C51.4724 5.40185 53.7295 7.52123 53.7295 11.9926C53.7295 16.464 51.4724 18.6092 47.6936 18.6092C46.0452 18.6092 43.9656 17.8597 42.799 16.6449C42.3933 16.2314 42.1143 15.4818 41.9367 14.9391H41.886C42.0636 15.5077 42.2157 16.2572 42.2157 16.8517L42.2612 23.6234H39.7304ZM42.2157 11.9926C42.2157 14.784 44.6504 16.5157 46.8821 16.5157C49.9761 16.5157 51.2441 15.0425 51.2441 11.9926C51.2441 8.91692 50.0015 7.57292 46.8821 7.54708C44.6504 7.52123 42.2157 9.20123 42.2157 11.9926ZM55.2363 18.4542V0H57.7217V18.4542H55.2363ZM66.1152 18.6092C62.3618 18.6351 59.1664 16.464 59.1664 11.9926C59.1664 7.52123 62.3618 5.35015 66.1152 5.376C69.8432 5.40185 72.8611 7.52123 72.8611 11.9926C72.8611 12.3545 72.8611 12.3803 72.8104 12.7163H61.7532C62.1336 15.2751 63.8327 16.5674 66.1659 16.5415C68.1187 16.5157 69.6657 15.8954 70.3758 13.9828L72.6582 14.2929C71.6945 17.4203 69.1078 18.5834 66.1152 18.6092ZM66.1659 7.36615C63.9088 7.34031 61.4996 9.09785 61.7532 12.7163C62.1336 11.3206 62.7422 11.1655 63.9595 11.1655H70.5026C70.1476 8.52923 68.4737 7.392 66.1659 7.36615Z" fill="white"/>
<path d="M35.1173 23.4683C38.0084 23.4942 40.4092 24.9502 41.1193 28L38.8369 28.3619C38.2282 26.5526 37.2476 25.6135 35.1173 25.5877C32.6827 25.5618 30.6792 27.1902 30.6792 30.0849C30.6792 33.0055 32.6066 34.608 35.1173 34.5563C37.1969 34.5305 38.5663 33.7034 39.2257 31.8425L41.5335 32.1785C40.8234 35.2283 38.0084 36.6757 35.1173 36.7015C31.3893 36.7274 28.1938 34.5563 28.1938 30.0849C28.1938 25.6135 31.3893 23.4425 35.1173 23.4683ZM46.0604 36.0812L39.7304 23.6234L42.2583 23.6234L47.1002 32.1009C47.3285 32.6437 47.4299 33.4191 47.4299 33.9877H47.4806C47.4806 33.4191 47.6074 32.6437 47.8357 32.1009L51.1325 23.6234H53.7954L47.9878 38.3815C46.9734 41.2763 44.8938 42 43.499 42H41.2421V39.9582H42.5353C43.1693 39.9582 44.8938 39.5705 45.401 38.1489L46.0604 36.0812ZM55.1966 36.5465L55.2371 18.4542L57.7217 18.4542L57.6819 36.5465H55.1966ZM59.33 20.6511H61.8914V18.4542H59.33V20.6511ZM59.3807 36.5465V23.6234H61.8407V36.5465H59.3807ZM63.4164 36.5465V23.6234H65.9017V26.2855C65.9017 26.8025 65.8003 27.5003 65.6989 28.0172L65.7496 28.0431C65.851 27.5262 66.0032 26.8283 66.2568 26.3631C67.2966 24.3212 69.1226 23.4166 70.8217 23.4166C74.0172 23.4166 75.0823 26.544 75.0823 29.9557V36.5465H72.597V29.9557C72.597 27.5003 71.7093 25.9495 69.9848 25.9495C68.6914 25.9495 65.9017 26.88 65.9017 31.7132V36.5465H63.4164ZM76.4894 30.0849C76.4894 25.6135 78.7465 23.4942 82.5252 23.4683C84.199 23.4425 86.304 24.2695 87.4706 25.5102C87.8763 25.9237 88.1553 26.6732 88.3328 27.216H88.3836C88.206 26.6474 88.0539 25.8978 88.0539 25.3034V18.4542H90.5392V36.5465H88.0539V34.9698C88.0539 34.3754 88.206 33.6258 88.3836 33.0831L88.3328 33.0572C88.1553 33.6 87.8763 34.3495 87.4706 34.7631C86.2786 35.9778 84.199 36.7015 82.5252 36.7015C78.7465 36.7015 76.4894 34.5563 76.4894 30.0849ZM83.3368 25.5618C80.2428 25.5877 78.9747 27.0351 78.9747 30.0849C78.9747 33.1348 80.2681 34.5305 83.3368 34.5305C85.5939 34.5305 88.0539 32.8763 88.0539 30.0849C88.0539 27.2935 85.5939 25.536 83.3368 25.5618ZM98.792 36.7015C95.0386 36.7274 91.8432 34.5563 91.8432 30.0849C91.8432 25.6135 95.0386 23.4425 98.792 23.4683C102.52 23.4942 105.538 25.6135 105.538 30.0849C105.538 30.4468 105.538 30.4726 105.487 30.8086H94.43C94.8104 33.3674 96.5095 34.6597 98.8427 34.6338C100.795 34.608 102.342 33.9877 103.053 32.0751L105.335 32.3852C104.371 35.5126 101.785 36.6757 98.792 36.7015ZM98.8427 25.4585C96.5856 25.4326 94.1763 27.1902 94.43 30.8086C94.8104 29.4129 95.419 29.2578 96.6363 29.2578H103.179C102.824 26.6215 101.151 25.4843 98.8427 25.4585ZM107.03 27.0868C107.03 24.7606 108.095 23.6234 110.403 23.6234H115.5V26.0012L111.214 26.0271C109.794 26.0271 109.515 26.1822 109.515 27.9655V36.5465H107.03V27.0868Z" fill="white"/>
</svg>
